<svg width="651" height="646" xmlns="http://www.w3.org/2000/svg" xmlns:xlink="http://www.w3.org/1999/xlink" fill="#ffffff"><defs><style>
  text {
    fill: #212529;
    font-family: Helvetica Neue, Helvetica, Arial, sans-serif;
    font-size: 16px;
  }

  marker, text {
    fill-opacity: 1;
  }

  * {
    overflow: visible;
  }
</style></defs><svg x="195" y="15" width="45" height="45" class="" fill="#ffffff"><g><circle cx="50%" cy="50%" r="22.5" fill-opacity="1" stroke="none" fill="black" class="sc-gsFSXq eLSKjx"></circle></g></svg><svg x="15" y="105" width="390" height="50" class="User selects an Element to Drop onto the canvas" fill="#ffffff"><g><rect rx="10" ry="10" width="100%" height="100%" stroke="black" fill="white" class="sc-fqkvVR uHYUy"></rect><text x="195" y="25" text-anchor="middle" width="390" height="50" font-weight="bold" pointer-events="none"><tspan x="195" dy="5.5">User selects an Element to Drop onto the canvas</tspan></text></g></svg><svg x="45" y="195" width="340" height="140" class="Does user want to rename the element" fill="#ffffff"><g><polyline points="170 0, 340 70, 170 140, 0 70, 170 0" stroke="black" fill="white" class="sc-aXZVg gpEgBW"></polyline><text x="170" y="70" text-anchor="middle" width="340" height="140" font-weight="bold" pointer-events="none"><tspan x="170" dy="5.5">Does user want to rename the element</tspan></text></g></svg><svg x="435" y="305" width="190" height="40" class="User clicks to element" fill="#ffffff"><g><rect rx="10" ry="10" width="100%" height="100%" stroke="black" fill="white" class="sc-fqkvVR uHYUy"></rect><text x="95" y="20" text-anchor="middle" width="190" height="40" font-weight="bold" pointer-events="none"><tspan x="95" dy="5.5">User clicks to element</tspan></text></g></svg><svg x="435" y="375" width="200" height="40" class="User clicks the edit icon" fill="#ffffff"><g><rect rx="10" ry="10" width="100%" height="100%" stroke="black" fill="white" class="sc-fqkvVR uHYUy"></rect><text x="100" y="20" text-anchor="middle" width="200" height="40" font-weight="bold" pointer-events="none"><tspan x="100" dy="5.5">User clicks the edit icon</tspan></text></g></svg><svg x="435" y="445" width="190" height="40" class="The edit popup appers " fill="#ffffff"><g><rect rx="10" ry="10" width="100%" height="100%" stroke="black" fill="white" class="sc-fqkvVR uHYUy"></rect><text x="95" y="20" text-anchor="middle" width="190" height="40" font-weight="bold" pointer-events="none"><tspan x="95" dy="5.5">The edit popup appers </tspan></text></g></svg><svg x="435" y="525" width="200" height="40" class="User changes the name" fill="#ffffff"><g><rect rx="10" ry="10" width="100%" height="100%" stroke="black" fill="white" class="sc-fqkvVR uHYUy"></rect><text x="50%" y="20" dominant-baseline="middle" text-anchor="middle" font-weight="bold" pointer-events="none">User changes the name</text></g></svg><svg x="195" y="585" width="45" height="45" class="" fill="#ffffff"><g><circle cx="50%" cy="50%" r="20" stroke-width="5" stroke="black" fill="white" class="sc-iGgWBj fYmGgq"></circle><circle cx="50%" cy="50%" r="15" fill-opacity="1" stroke="none" fill="black" class="sc-gsFSXq eLSKjx"></circle></g></svg><svg x="217.5" y="335" width="25.7421875" height="250" class="No" fill="#ffffff"><g><marker id="marker-9512153c-ecb5-41be-ae20-7e2f0c3a5e2d" viewBox="0 0 30 30" markerWidth="22" markerHeight="30" refX="30" refY="15" orient="auto" markerUnits="strokeWidth"><path d="M0,29 L30,15 L0,1" stroke="black" fill="none" class="sc-gEvEer bFSwyf"></path></marker><polyline points="0 0,0 250" stroke-width="1" marker-end="url(#marker-9512153c-ecb5-41be-ae20-7e2f0c3a5e2d)" stroke="black" fill="none" class="sc-aXZVg eMElBf"></polyline><text x="0" y="125" dx="5" dominant-baseline="middle" text-anchor="start" pointer-events="none">No</text></g></svg><svg x="385" y="225" width="145" height="80" class="Yes" fill="#ffffff"><g><marker id="marker-afcb2ba5-2810-4622-b480-8ee865bfdda8" viewBox="0 0 30 30" markerWidth="22" markerHeight="30" refX="30" refY="15" orient="auto" markerUnits="strokeWidth"><path d="M0,29 L30,15 L0,1" stroke="black" fill="none" class="sc-gEvEer bFSwyf"></path></marker><polyline points="0 40,145 40,145 80" stroke-width="1" marker-end="url(#marker-afcb2ba5-2810-4622-b480-8ee865bfdda8)" stroke="black" fill="none" class="sc-aXZVg eMElBf"></polyline><text x="92.5" y="40" dy="-5" dominant-baseline="text-after-edge" text-anchor="middle" pointer-events="none">Yes</text></g></svg><svg x="530" y="345" width="1" height="30" class="" fill="#ffffff"><g><marker id="marker-7a9652d9-6ac5-443c-85c3-628961244239" viewBox="0 0 30 30" markerWidth="22" markerHeight="30" refX="30" refY="15" orient="auto" markerUnits="strokeWidth"><path d="M0,29 L30,15 L0,1" stroke="black" fill="none" class="sc-gEvEer bFSwyf"></path></marker><polyline points="0 0,0 30" stroke-width="1" marker-end="url(#marker-7a9652d9-6ac5-443c-85c3-628961244239)" stroke="black" fill="none" class="sc-aXZVg eMElBf"></polyline><text x="0" y="15" dx="5" dominant-baseline="middle" text-anchor="start" pointer-events="none"></text></g></svg><svg x="530" y="415" width="1" height="30" class="" fill="#ffffff"><g><marker id="marker-3f16f520-6870-46a0-9257-9f0bba3372d0" viewBox="0 0 30 30" markerWidth="22" markerHeight="30" refX="30" refY="15" orient="auto" markerUnits="strokeWidth"><path d="M0,29 L30,15 L0,1" stroke="black" fill="none" class="sc-gEvEer bFSwyf"></path></marker><polyline points="0 0,0 30" stroke-width="1" marker-end="url(#marker-3f16f520-6870-46a0-9257-9f0bba3372d0)" stroke="black" fill="none" class="sc-aXZVg eMElBf"></polyline><text x="0" y="15" dx="5" dominant-baseline="middle" text-anchor="start" pointer-events="none"></text></g></svg><svg x="530" y="485" width="1" height="40" class="" fill="#ffffff"><g><marker id="marker-9aa88e15-a198-4e99-9832-bfb79add9a5d" viewBox="0 0 30 30" markerWidth="22" markerHeight="30" refX="30" refY="15" orient="auto" markerUnits="strokeWidth"><path d="M0,29 L30,15 L0,1" stroke="black" fill="none" class="sc-gEvEer bFSwyf"></path></marker><polyline points="0 0,0 40" stroke-width="1" marker-end="url(#marker-9aa88e15-a198-4e99-9832-bfb79add9a5d)" stroke="black" fill="none" class="sc-aXZVg eMElBf"></polyline><text x="0" y="20" dx="5" dominant-baseline="middle" text-anchor="start" pointer-events="none"></text></g></svg><svg x="240" y="565" width="295" height="42.5" class="" fill="#ffffff"><g><marker id="marker-dc00a76e-3f87-4181-a745-152d9ccff1bd" viewBox="0 0 30 30" markerWidth="22" markerHeight="30" refX="30" refY="15" orient="auto" markerUnits="strokeWidth"><path d="M0,29 L30,15 L0,1" stroke="black" fill="none" class="sc-gEvEer bFSwyf"></path></marker><polyline points="295 0,295 42.5,0 42.5" stroke-width="1" marker-end="url(#marker-dc00a76e-3f87-4181-a745-152d9ccff1bd)" stroke="black" fill="none" class="sc-aXZVg eMElBf"></polyline><text x="168.75" y="42.5" dy="-5" dominant-baseline="text-after-edge" text-anchor="middle" pointer-events="none"></text></g></svg><svg x="217.5" y="60" width="1" height="45" class="" fill="#ffffff"><g><marker id="marker-ff0ad0da-eeb1-488a-b48f-8b2a534b8487" viewBox="0 0 30 30" markerWidth="22" markerHeight="30" refX="30" refY="15" orient="auto" markerUnits="strokeWidth"><path d="M0,29 L30,15 L0,1" stroke="black" fill="none" class="sc-gEvEer bFSwyf"></path></marker><polyline points="0 0,0 45" stroke-width="1" marker-end="url(#marker-ff0ad0da-eeb1-488a-b48f-8b2a534b8487)" stroke="black" fill="none" class="sc-aXZVg eMElBf"></polyline><text x="0" y="22.5" dx="5" dominant-baseline="middle" text-anchor="start" pointer-events="none"></text></g></svg><svg x="215" y="155" width="1" height="40" class="" fill="#ffffff"><g><marker id="marker-25ca51d2-b0ae-4e36-a0c9-d367a787e70e" viewBox="0 0 30 30" markerWidth="22" markerHeight="30" refX="30" refY="15" orient="auto" markerUnits="strokeWidth"><path d="M0,29 L30,15 L0,1" stroke="black" fill="none" class="sc-gEvEer bFSwyf"></path></marker><polyline points="0 0,0 40" stroke-width="1" marker-end="url(#marker-25ca51d2-b0ae-4e36-a0c9-d367a787e70e)" stroke="black" fill="none" class="sc-aXZVg eMElBf"></polyline><text x="0" y="20" dx="5" dominant-baseline="middle" text-anchor="start" pointer-events="none"></text></g></svg></svg>